<?xml version="1.0" encoding="utf-8"?>
<!-- Generator: Adobe Illustrator 16.0.0, SVG Export Plug-In . SVG Version: 6.00 Build 0)  -->
<!DOCTYPE svg PUBLIC "-//W3C//DTD SVG 1.1//EN" "http://www.w3.org/Graphics/SVG/1.1/DTD/svg11.dtd">
<svg version="1.1" id="Layer_1" xmlns="http://www.w3.org/2000/svg" xmlns:xlink="http://www.w3.org/1999/xlink" x="0px" y="0px"
	 width="104px" height="104px" viewBox="0 0 104 104" style="enable-background:new 0 0 104 104;" xml:space="preserve">
<style type="text/css">
<![CDATA[
	.st0{fill:#FFFFFF;}
]]>
</style>
<g>
	<path class="st0" d="M52.1,0.6C23.7,0.6,0.7,23.6,0.7,52c0,28.4,23,51.4,51.4,51.4c28.4,0,51.4-23,51.4-51.4
		C103.4,23.6,80.4,0.6,52.1,0.6L52.1,0.6z M52.1,100.2C25.5,100.2,3.9,78.6,3.9,52c0-26.6,21.6-48.2,48.2-48.2
		c26.6,0,48.2,21.6,48.2,48.2C100.2,78.6,78.6,100.2,52.1,100.2L52.1,100.2z M52.1,100.2"/>
	<path class="st0" d="M66.8,39.5l-2.3-2.3L52.1,49.7L39.6,37.2l-2.3,2.3L49.8,52L37.3,64.5l2.3,2.3l12.5-12.5l12.5,12.5l2.3-2.3
		L54.3,52L66.8,39.5z M66.8,39.5"/>
</g>
</svg>
