<?xml version="1.0" encoding="utf-8"?>
<!-- Generator: Adobe Illustrator 16.0.0, SVG Export Plug-In . SVG Version: 6.00 Build 0)  -->
<!DOCTYPE svg PUBLIC "-//W3C//DTD SVG 1.1//EN" "http://www.w3.org/Graphics/SVG/1.1/DTD/svg11.dtd">
<svg version="1.1" xmlns="http://www.w3.org/2000/svg" xmlns:xlink="http://www.w3.org/1999/xlink" x="0px" y="0px" width="50px"
	 height="50px" viewBox="0 0 50 50" style="enable-background:new 0 0 50 50;" xml:space="preserve">
<style type="text/css">
<![CDATA[
	.st0{fill:#FED700;}
	.st1{clip-path:url(#SVGID_2_);stroke:#FED700;stroke-width:0.7642;stroke-miterlimit:10;}
]]>
</style>
<g id="Layer_1">
	<g>
		<defs>
			<rect id="SVGID_1_" x="7.1" y="15.3" width="35.8" height="19.8"/>
		</defs>
		<clipPath id="SVGID_2_">
			<use xlink:href="#SVGID_1_"  style="display:none;overflow:visible;"/>
		</clipPath>
		<path class="st1" d="M17.4,24.8l-9.5-9.5c-0.1-0.1-0.3-0.1-0.4,0c-0.1,0.1-0.1,0.3,0,0.4l9.3,9.3l-9.5,9.5c-0.1,0.1-0.1,0.3,0,0.4
			c0.1,0.1,0.1,0.1,0.2,0.1c0.1,0,0.2,0,0.2-0.1l9.8-9.8C17.5,25.1,17.5,24.9,17.4,24.8L17.4,24.8z M17.4,24.8"/>
		<path class="st1" d="M19.8,35c0.1,0.1,0.1,0.1,0.2,0.1c0.1,0,0.2,0,0.2-0.1l9.8-9.8c0.1-0.1,0.1-0.3,0-0.4l-9.5-9.5
			c-0.1-0.1-0.3-0.1-0.4,0c-0.1,0.1-0.1,0.3,0,0.4l9.3,9.3l-9.5,9.5C19.7,34.7,19.7,34.9,19.8,35L19.8,35z M19.8,35"/>
		<path class="st1" d="M32.7,35.1c0.1,0,0.2,0,0.2-0.1l9.8-9.8c0.1-0.1,0.1-0.3,0-0.4l-9.5-9.5c-0.1-0.1-0.3-0.1-0.4,0
			c-0.1,0.1-0.1,0.3,0,0.4L42,25l-9.5,9.5c-0.1,0.1-0.1,0.3,0,0.4C32.5,35,32.6,35.1,32.7,35.1L32.7,35.1z M32.7,35.1"/>
		
			<use xlink:href="#SVGID_1_"  style="display:none;overflow:visible;fill:none;stroke:#FED700;stroke-width:0.7642;stroke-miterlimit:10;"/>
	</g>
</g>
<g id="Layer_2">
	<g>
		<path class="st0" d="M25,1.9C37.7,1.9,48,12.3,48,25C48,37.7,37.7,48.1,25,48.1C12.3,48.1,1.9,37.7,1.9,25
			C1.9,12.3,12.3,1.9,25,1.9 M25,0.4C11.4,0.4,0.4,11.4,0.4,25c0,13.6,11,24.6,24.6,24.6c13.6,0,24.6-11,24.6-24.6
			C49.6,11.4,38.6,0.4,25,0.4L25,0.4z"/>
	</g>
</g>
</svg>
