<?xml version="1.0" encoding="utf-8"?>
<!-- Generator: Adobe Illustrator 16.0.0, SVG Export Plug-In . SVG Version: 6.00 Build 0)  -->
<!DOCTYPE svg PUBLIC "-//W3C//DTD SVG 1.1//EN" "http://www.w3.org/Graphics/SVG/1.1/DTD/svg11.dtd">
<svg version="1.1" id="Layer_1" xmlns="http://www.w3.org/2000/svg" xmlns:xlink="http://www.w3.org/1999/xlink" x="0px" y="0px"
	 width="400px" height="200px" viewBox="0 0 200 100" style="enable-background:new 0 0 400 200;" xml:space="preserve">
<style type="text/css">
<![CDATA[
	.st0{opacity:0.619;clip-path:url(#SVGID_4_);}
	.st1{opacity:0.2857;clip-path:url(#SVGID_4_);}
	.st2{clip-path:url(#SVGID_68_);fill:url(#SVGID_69_);}
	.st3{clip-path:url(#SVGID_83_);fill:url(#SVGID_84_);}
	.st4{opacity:0.9048;clip-path:url(#SVGID_4_);}
	.st5{clip-path:url(#SVGID_111_);fill:#FFFFFF;}
	.st6{opacity:0.3333;clip-path:url(#SVGID_4_);}
	.st7{clip-path:url(#SVGID_18_);fill:url(#SVGID_19_);}
	.st8{clip-path:url(#SVGID_33_);fill:url(#SVGID_34_);}
	.st9{opacity:9.524500e-02;clip-path:url(#SVGID_4_);}
	.st10{opacity:0.65;}
	.st11{clip-path:url(#SVGID_78_);fill:url(#SVGID_79_);}
	.st12{opacity:0.6667;clip-path:url(#SVGID_4_);}
	.st13{clip-path:url(#SVGID_93_);fill:url(#SVGID_94_);}
	.st14{clip-path:url(#SVGID_28_);fill:url(#SVGID_29_);}
	.st15{clip-path:url(#SVGID_43_);fill:url(#SVGID_44_);}
	.st16{opacity:0.7143;clip-path:url(#SVGID_4_);}
	.st17{clip-path:url(#SVGID_88_);fill:url(#SVGID_89_);}
	.st18{fill:url(#SVGID_112_);}
	.st19{fill:url(#SVGID_113_);}
	.st20{fill:url(#SVGID_114_);}
	.st21{fill:url(#SVGID_115_);}
	.st22{fill:url(#SVGID_116_);}
	.st23{fill:url(#SVGID_117_);}
	.st24{fill:url(#SVGID_118_);}
	.st25{fill:url(#SVGID_119_);}
	.st26{opacity:0.32;fill:#FFFFFF;}
	.st27{clip-path:url(#SVGID_4_);}
	.st28{clip-path:url(#SVGID_6_);}
	.st29{opacity:0.7619;clip-path:url(#SVGID_4_);}
	.st30{opacity:4.762300e-02;clip-path:url(#SVGID_4_);}
	.st31{opacity:0.381;clip-path:url(#SVGID_4_);}
	.st32{fill:url(#SVGID_1_);}
	.st33{fill:url(#SVGID_2_);}
	.st34{opacity:0.4762;clip-path:url(#SVGID_4_);}
	.st35{clip-path:url(#SVGID_38_);fill:url(#SVGID_39_);}
	.st36{clip-path:url(#SVGID_53_);fill:url(#SVGID_54_);}
	.st37{fill:#FBB040;}
	.st38{opacity:0.1905;clip-path:url(#SVGID_4_);}
	.st39{fill:#FFD700;}
	.st40{clip-path:url(#SVGID_98_);fill:url(#SVGID_99_);}
	.st41{opacity:0;clip-path:url(#SVGID_4_);}
	.st42{clip-path:url(#SVGID_108_);fill:url(#SVGID_109_);}
	.st43{opacity:0.4286;clip-path:url(#SVGID_4_);}
	.st44{opacity:0.8571;clip-path:url(#SVGID_4_);}
	.st45{opacity:0.1429;clip-path:url(#SVGID_4_);}
	.st46{clip-path:url(#SVGID_48_);fill:url(#SVGID_49_);}
	.st47{clip-path:url(#SVGID_63_);fill:url(#SVGID_64_);}
	.st48{opacity:0.5714;clip-path:url(#SVGID_4_);}
	.st49{clip-path:url(#SVGID_103_);fill:url(#SVGID_104_);}
	.st50{clip-path:url(#SVGID_101_);}
	.st51{clip-path:url(#SVGID_106_);}
	.st52{clip-path:url(#SVGID_13_);fill:url(#SVGID_14_);}
	.st53{opacity:0.8095;clip-path:url(#SVGID_4_);}
	.st54{opacity:0.5238;clip-path:url(#SVGID_4_);}
	.st55{clip-path:url(#SVGID_11_);}
	.st56{clip-path:url(#SVGID_16_);}
	.st57{clip-path:url(#SVGID_21_);}
	.st58{clip-path:url(#SVGID_26_);}
	.st59{clip-path:url(#SVGID_31_);}
	.st60{clip-path:url(#SVGID_36_);}
	.st61{clip-path:url(#SVGID_41_);}
	.st62{clip-path:url(#SVGID_46_);}
	.st63{clip-path:url(#SVGID_51_);}
	.st64{clip-path:url(#SVGID_56_);}
	.st65{clip-path:url(#SVGID_61_);}
	.st66{clip-path:url(#SVGID_66_);}
	.st67{clip-path:url(#SVGID_71_);}
	.st68{clip-path:url(#SVGID_76_);}
	.st69{clip-path:url(#SVGID_81_);}
	.st70{clip-path:url(#SVGID_86_);}
	.st71{clip-path:url(#SVGID_91_);}
	.st72{clip-path:url(#SVGID_96_);}
	.st73{clip-path:url(#SVGID_58_);fill:url(#SVGID_59_);}
	.st74{clip-path:url(#SVGID_8_);fill:url(#SVGID_9_);}
	.st75{clip-path:url(#SVGID_73_);fill:url(#SVGID_74_);}
	.st76{opacity:0.2381;clip-path:url(#SVGID_4_);}
	.st77{opacity:0.9524;clip-path:url(#SVGID_4_);}
	.st78{clip-path:url(#SVGID_23_);fill:url(#SVGID_24_);}
]]>
</style>
<linearGradient id="SVGID_1_" gradientUnits="userSpaceOnUse" x1="69.7285" y1="71.9033" x2="165.0968" y2="14.6193">
	<stop  offset="0" style="stop-color:#FBB03C;stop-opacity:0.21"/>
	<stop  offset="2.683938e-03" style="stop-color:#FBB13B;stop-opacity:0.21"/>
	<stop  offset="7.961375e-02" style="stop-color:#FAC338;stop-opacity:0.2092"/>
	<stop  offset="0.1663" style="stop-color:#FAD233;stop-opacity:0.2083"/>
	<stop  offset="0.2678" style="stop-color:#FADD2E;stop-opacity:0.2073"/>
	<stop  offset="0.3919" style="stop-color:#FAE529;stop-opacity:0.2061"/>
	<stop  offset="0.5625" style="stop-color:#FAEB26;stop-opacity:0.2044"/>
	<stop  offset="1" style="stop-color:#FAED24;stop-opacity:0.2"/>
</linearGradient>
<polyline class="st32" points="196.5,66.9 175.4,62.2 38.3,19.6 "/>
<linearGradient id="SVGID_2_" gradientUnits="userSpaceOnUse" x1="-23.6855" y1="60.9814" x2="17.2261" y2="60.9814" gradientTransform="matrix(0.8572 -0.5149 0.5149 0.8572 9.2495 -34.7082)">
	<stop  offset="0" style="stop-color:#FAED24"/>
	<stop  offset="1" style="stop-color:#FBB03C"/>
</linearGradient>
<path class="st33" d="M27.3,1.7c9.8,16.3,10.7,16.8,13,7.6c-2.3,9.2-1.3,9.2,15.1-0.6c-16.3,9.8-16.8,10.7-7.6,13
	c-9.2-2.3-9.2-1.3,0.6,15.1c-9.8-16.3-10.7-16.8-13-7.6c2.3-9.2,1.3-9.2-15.1,0.6c16.3-9.8,16.8-10.7,7.6-13
	C37.2,19.1,37.1,18,27.3,1.7"/>
<g>
	<path class="st39" d="M72.4,13.9c0,4.5-1.4,9.2-4.1,14.1c-2.7,4.9-6.5,9.2-11.3,12.8c-4.8,3.6-9.8,5.9-15,6.9
		c-3,6.3-5.1,10.8-6.4,13.3l-1.5,2.6C43.7,66.1,51.7,70,58,75.2c3.2,2.6,5.4,5.9,6.5,9.7c0.6,2,0.9,3.6,0.9,5s-0.3,2.6-0.8,3.5
		s-1.1,1.6-1.8,2c-0.7,0.4-1.2,0.5-1.5,0.5s-0.4-0.1-0.4-0.4c0-0.3,0.3-1,0.8-2.3c0.6-1.3,0.8-2.7,0.8-4.5s-0.3-3.6-1-5.7
		c-0.7-2.1-1.9-4-3.8-5.7c-1.8-1.7-4.4-3.4-7.7-4.9C46.8,71,44,70,41.6,69.3c-2.4-0.6-5.6-1.4-9.6-2.2c-4.1,6.1-8.4,10.3-12.9,12.6
		c-2.7,1.4-5,2.1-7.1,2.1c-2.1,0-3.9-0.4-5.5-1.3c-2.8-1.4-4.1-3.6-4.1-6.6c0-2.9,1.8-5.5,5.5-7.7c4.1-2.6,9.7-3.9,16.7-3.9
		c2.5,0,4.8,0.2,6.8,0.6c2.2-3.6,4.7-8.6,7.6-14.9c-0.3,0-0.6,0-0.8,0c-3.1,0-5.9-0.5-8.5-1.6s-4.7-2.6-6.3-4.4
		c-2-2.4-3.1-5.2-3.1-8.2c0-1.6,0.4-3.3,1.1-5.2c0.8-1.9,2.4-3.7,5-5.7c2.6-1.9,5.9-3.4,9.9-4.3c0.6-0.2,1.2-0.2,1.6-0.2
		s0.7,0.1,0.8,0.4c0.1,0.3-0.1,0.5-0.6,0.7c-0.5,0.2-1,0.4-1.7,0.5c-2.1,0.3-4,1-5.8,2.2c-3.1,2.1-5.3,5.4-6.5,9.8
		c-0.3,1-0.4,2-0.4,3c0,1,0.2,2.1,0.5,3.4c0.3,1.3,1.1,2.7,2.2,4.1c1.1,1.4,2.6,2.4,4.5,3c1.9,0.6,3.6,0.9,5,0.9
		c1.4,0,2.8-0.1,4-0.2l6.2-16.6c4.3-11.7,9.4-18.8,15.3-21.5c1.6-0.7,3.1-1,4.5-1c1.5,0,2.9,0.5,4.2,1.5c1.3,1,2,2.2,2.1,3.7
		C72.4,12.7,72.4,13.3,72.4,13.9z M29.1,66.6c-2.4-0.6-4.8-0.9-7.3-0.9c-2.5,0-5.1,0.4-7.8,1.2c-5.6,1.5-8.9,3.7-9.8,6.6
		c-0.2,0.5-0.3,1-0.3,1.5c0,1.3,0.7,2.4,2.1,3.3s2.9,1.3,4.5,1.3c2.3,0,4.8-0.7,7.4-2C21.9,75.5,25.6,71.8,29.1,66.6z M69.4,14
		c0-2-0.8-2.9-2.5-2.9c-2.5,0-5.5,2.3-9,6.9c-2.8,3.7-5.4,8.1-8,13.3s-4.8,10-6.8,14.4C49.8,44,55.9,40,61.3,33.8
		C66.7,27.5,69.4,20.9,69.4,14z"/>
</g>
<g class="st10">
	<g>
		<defs>
			
				<rect id="SVGID_3_" x="30.2" y="11.3" transform="matrix(-0.8572 0.515 -0.515 -0.8572 79.9401 15.7297)" width="15.2" height="15.2"/>
		</defs>
		<clipPath id="SVGID_4_">
			<use xlink:href="#SVGID_3_"  style="overflow:visible;"/>
		</clipPath>
		<g class="st41">
			<g>
				<defs>
					
						<rect id="SVGID_5_" x="30.2" y="11.3" transform="matrix(-0.8572 0.515 -0.515 -0.8572 79.9401 15.7297)" width="15.2" height="15.2"/>
				</defs>
				<clipPath id="SVGID_6_">
					<use xlink:href="#SVGID_5_"  style="overflow:visible;"/>
				</clipPath>
				<g class="st28">
					<defs>
						<path id="SVGID_7_" d="M44.3,15c2.2,3.6,1,8.3-2.6,10.4c-3.6,2.2-8.3,1-10.4-2.6c-2.2-3.6-1-8.3,2.6-10.4
							C37.5,10.3,42.1,11.4,44.3,15"/>
					</defs>
					<clipPath id="SVGID_8_">
						<use xlink:href="#SVGID_7_"  style="overflow:visible;"/>
					</clipPath>
					
						<radialGradient id="SVGID_9_" cx="-331.124" cy="347.4531" r="0.2495" gradientTransform="matrix(26.1315 -15.6961 -15.6961 -26.1315 14144.1934 3901.0454)" gradientUnits="userSpaceOnUse">
						<stop  offset="0" style="stop-color:#FFF8F7"/>
						<stop  offset="0.1273" style="stop-color:#FFF8F7"/>
						<stop  offset="0.5333" style="stop-color:#E4DBBE"/>
						<stop  offset="0.9939" style="stop-color:#CBBA94"/>
						<stop  offset="1" style="stop-color:#CBBA94"/>
					</radialGradient>
					<polygon class="st74" points="27.3,16.3 40.4,8.5 48.2,21.6 35.2,29.4 					"/>
				</g>
			</g>
		</g>
		<g class="st30">
			<g>
				<defs>
					
						<rect id="SVGID_10_" x="30.5" y="11.7" transform="matrix(-0.8572 0.5149 -0.5149 -0.8572 79.9393 15.7321)" width="14.6" height="14.6"/>
				</defs>
				<clipPath id="SVGID_11_">
					<use xlink:href="#SVGID_10_"  style="overflow:visible;"/>
				</clipPath>
				<g class="st55">
					<defs>
						<path id="SVGID_12_" d="M44,15.2c2.1,3.4,1,7.9-2.5,10c-3.4,2.1-7.9,1-10-2.5c-2.1-3.4-1-7.9,2.5-10
							C37.5,10.6,42,11.8,44,15.2"/>
					</defs>
					<clipPath id="SVGID_13_">
						<use xlink:href="#SVGID_12_"  style="overflow:visible;"/>
					</clipPath>
					
						<radialGradient id="SVGID_14_" cx="-331.5938" cy="347.4004" r="0.2498" gradientTransform="matrix(24.9963 -15.0143 -15.0143 -24.9963 13542.4023 3724.0347)" gradientUnits="userSpaceOnUse">
						<stop  offset="0" style="stop-color:#FFF8F7"/>
						<stop  offset="0.1273" style="stop-color:#FFF8F7"/>
						<stop  offset="0.5333" style="stop-color:#E5DDC2"/>
						<stop  offset="0.9939" style="stop-color:#CDBD99"/>
						<stop  offset="1" style="stop-color:#CDBD99"/>
					</radialGradient>
					<polygon class="st52" points="27.8,16.5 40.3,9 47.8,21.4 35.3,28.9 					"/>
				</g>
			</g>
		</g>
		<g class="st9">
			<g>
				<defs>
					
						<rect id="SVGID_15_" x="30.8" y="12" transform="matrix(-0.8572 0.5149 -0.5149 -0.8572 79.9393 15.7316)" width="13.9" height="13.9"/>
				</defs>
				<clipPath id="SVGID_16_">
					<use xlink:href="#SVGID_15_"  style="overflow:visible;"/>
				</clipPath>
				<g class="st56">
					<defs>
						<path id="SVGID_17_" d="M43.7,15.4c2,3.3,0.9,7.6-2.4,9.5c-3.3,2-7.6,0.9-9.5-2.4c-2-3.3-0.9-7.6,2.4-9.5
							C37.5,11,41.8,12.1,43.7,15.4"/>
					</defs>
					<clipPath id="SVGID_18_">
						<use xlink:href="#SVGID_17_"  style="overflow:visible;"/>
					</clipPath>
					
						<radialGradient id="SVGID_19_" cx="-332.1191" cy="347.3887" r="0.2495" gradientTransform="matrix(23.8611 -14.3324 -14.3324 -23.8611 12941.4375 3547.9302)" gradientUnits="userSpaceOnUse">
						<stop  offset="0" style="stop-color:#FFF9F7"/>
						<stop  offset="0.1273" style="stop-color:#FFF9F7"/>
						<stop  offset="0.5333" style="stop-color:#E7DEC5"/>
						<stop  offset="0.9939" style="stop-color:#D0C19E"/>
						<stop  offset="1" style="stop-color:#D0C19E"/>
					</radialGradient>
					<polygon class="st7" points="28.3,16.6 40.2,9.4 47.3,21.3 35.4,28.5 					"/>
				</g>
			</g>
		</g>
		<g class="st45">
			<g>
				<defs>
					
						<rect id="SVGID_20_" x="31.2" y="12.3" transform="matrix(-0.8572 0.5149 -0.5149 -0.8572 79.9395 15.7302)" width="13.2" height="13.2"/>
				</defs>
				<clipPath id="SVGID_21_">
					<use xlink:href="#SVGID_20_"  style="overflow:visible;"/>
				</clipPath>
				<g class="st57">
					<defs>
						<path id="SVGID_22_" d="M43.5,15.5c1.9,3.1,0.9,7.2-2.3,9.1c-3.1,1.9-7.2,0.9-9.1-2.3c-1.9-3.1-0.9-7.2,2.3-9.1
							C37.5,11.4,41.6,12.4,43.5,15.5"/>
					</defs>
					<clipPath id="SVGID_23_">
						<use xlink:href="#SVGID_22_"  style="overflow:visible;"/>
					</clipPath>
					
						<radialGradient id="SVGID_24_" cx="-332.7012" cy="347.3457" r="0.2498" gradientTransform="matrix(22.7255 -13.6503 -13.6503 -22.7255 12339.9863 3371.0974)" gradientUnits="userSpaceOnUse">
						<stop  offset="0" style="stop-color:#FFF9F7"/>
						<stop  offset="0.1273" style="stop-color:#FFF9F7"/>
						<stop  offset="0.5333" style="stop-color:#E8E0C8"/>
						<stop  offset="0.9939" style="stop-color:#D2C4A3"/>
						<stop  offset="1" style="stop-color:#D2C4A3"/>
					</radialGradient>
					<polygon class="st78" points="28.7,16.7 40.1,9.9 46.9,21.2 35.5,28 					"/>
				</g>
			</g>
		</g>
		<g class="st38">
			<g>
				<defs>
					
						<rect id="SVGID_25_" x="31.5" y="12.7" transform="matrix(-0.8572 0.5149 -0.5149 -0.8572 79.9397 15.7319)" width="12.6" height="12.6"/>
				</defs>
				<clipPath id="SVGID_26_">
					<use xlink:href="#SVGID_25_"  style="overflow:visible;"/>
				</clipPath>
				<g class="st58">
					<defs>
						<path id="SVGID_27_" d="M43.2,15.7c1.8,3,0.8,6.8-2.2,8.6c-3,1.8-6.8,0.8-8.6-2.2c-1.8-3-0.8-6.8,2.2-8.6
							C37.5,11.8,41.4,12.7,43.2,15.7"/>
					</defs>
					<clipPath id="SVGID_28_">
						<use xlink:href="#SVGID_27_"  style="overflow:visible;"/>
					</clipPath>
					
						<radialGradient id="SVGID_29_" cx="-333.3281" cy="347.2832" r="0.2498" gradientTransform="matrix(21.5903 -12.9685 -12.9685 -21.5903 11738.1953 3194.1497)" gradientUnits="userSpaceOnUse">
						<stop  offset="0" style="stop-color:#FFF9FA"/>
						<stop  offset="0.1273" style="stop-color:#FFF9FA"/>
						<stop  offset="0.5333" style="stop-color:#E9E2CA"/>
						<stop  offset="0.9939" style="stop-color:#D5C7A8"/>
						<stop  offset="1" style="stop-color:#D5C7A8"/>
					</radialGradient>
					<polygon class="st14" points="29.2,16.8 39.9,10.3 46.4,21.1 35.6,27.6 					"/>
				</g>
			</g>
		</g>
		<g class="st76">
			<g>
				<defs>
					
						<rect id="SVGID_30_" x="31.8" y="13" transform="matrix(-0.8572 0.5149 -0.5149 -0.8572 79.9388 15.7315)" width="11.9" height="11.9"/>
				</defs>
				<clipPath id="SVGID_31_">
					<use xlink:href="#SVGID_30_"  style="overflow:visible;"/>
				</clipPath>
				<g class="st59">
					<defs>
						<path id="SVGID_32_" d="M42.9,15.9c1.7,2.8,0.8,6.5-2,8.2c-2.8,1.7-6.5,0.8-8.2-2c-1.7-2.8-0.8-6.5,2-8.2
							C37.5,12.1,41.2,13.1,42.9,15.9"/>
					</defs>
					<clipPath id="SVGID_33_">
						<use xlink:href="#SVGID_32_"  style="overflow:visible;"/>
					</clipPath>
					
						<radialGradient id="SVGID_34_" cx="-334.0859" cy="347.2461" r="0.2495" gradientTransform="matrix(20.4552 -12.2866 -12.2866 -20.4552 11138.0498 3017.1636)" gradientUnits="userSpaceOnUse">
						<stop  offset="0" style="stop-color:#FFFAF9"/>
						<stop  offset="0.1273" style="stop-color:#FFFAF9"/>
						<stop  offset="0.5333" style="stop-color:#EAE3CD"/>
						<stop  offset="0.9939" style="stop-color:#D7CAAD"/>
						<stop  offset="1" style="stop-color:#D7CAAD"/>
					</radialGradient>
					<polygon class="st8" points="29.6,16.9 39.8,10.8 46,21 35.7,27.1 					"/>
				</g>
			</g>
		</g>
		<g class="st1">
			<g>
				<defs>
					
						<rect id="SVGID_35_" x="32.2" y="13.3" transform="matrix(-0.8572 0.5149 -0.5149 -0.8572 79.9389 15.731)" width="11.3" height="11.3"/>
				</defs>
				<clipPath id="SVGID_36_">
					<use xlink:href="#SVGID_35_"  style="overflow:visible;"/>
				</clipPath>
				<g class="st60">
					<defs>
						<path id="SVGID_37_" d="M42.6,16c1.6,2.7,0.7,6.1-1.9,7.7c-2.7,1.6-6.1,0.7-7.7-1.9c-1.6-2.7-0.7-6.1,1.9-7.7
							C37.6,12.5,41,13.4,42.6,16"/>
					</defs>
					<clipPath id="SVGID_38_">
						<use xlink:href="#SVGID_37_"  style="overflow:visible;"/>
					</clipPath>
					
						<radialGradient id="SVGID_39_" cx="-334.8818" cy="347.2168" r="0.2498" gradientTransform="matrix(19.32 -11.6047 -11.6047 -19.32 10537.0771 2840.9963)" gradientUnits="userSpaceOnUse">
						<stop  offset="0" style="stop-color:#FFFAF9"/>
						<stop  offset="0.1273" style="stop-color:#FFFAF9"/>
						<stop  offset="0.5333" style="stop-color:#EBE5D1"/>
						<stop  offset="0.9939" style="stop-color:#DACFB4"/>
						<stop  offset="1" style="stop-color:#DACFB4"/>
					</radialGradient>
					<polygon class="st35" points="30.1,17 39.7,11.2 45.5,20.9 35.9,26.7 					"/>
				</g>
			</g>
		</g>
		<g class="st6">
			<g>
				<defs>
					
						<rect id="SVGID_40_" x="32.5" y="13.7" transform="matrix(-0.8573 0.5149 -0.5149 -0.8573 79.9394 15.733)" width="10.6" height="10.6"/>
				</defs>
				<clipPath id="SVGID_41_">
					<use xlink:href="#SVGID_40_"  style="overflow:visible;"/>
				</clipPath>
				<g class="st61">
					<defs>
						<path id="SVGID_42_" d="M42.3,16.2c1.5,2.5,0.7,5.8-1.8,7.3c-2.5,1.5-5.8,0.7-7.3-1.8c-1.5-2.5-0.7-5.8,1.8-7.3
							C37.6,12.9,40.8,13.7,42.3,16.2"/>
					</defs>
					<clipPath id="SVGID_43_">
						<use xlink:href="#SVGID_42_"  style="overflow:visible;"/>
					</clipPath>
					
						<radialGradient id="SVGID_44_" cx="-335.7812" cy="347.1445" r="0.2493" gradientTransform="matrix(18.1842 -10.9225 -10.9225 -18.1842 9935.3926 2663.9097)" gradientUnits="userSpaceOnUse">
						<stop  offset="0" style="stop-color:#FFFAFA"/>
						<stop  offset="0.1273" style="stop-color:#FFFAFA"/>
						<stop  offset="0.5333" style="stop-color:#ECE7D4"/>
						<stop  offset="0.9939" style="stop-color:#DDD2B9"/>
						<stop  offset="1" style="stop-color:#DDD2B9"/>
					</radialGradient>
					<polygon class="st15" points="30.5,17.1 39.6,11.7 45.1,20.8 36,26.2 					"/>
				</g>
			</g>
		</g>
		<g class="st31">
			<g>
				<defs>
					
						<rect id="SVGID_45_" x="32.8" y="14" transform="matrix(-0.8572 0.5149 -0.5149 -0.8572 79.9387 15.7308)" width="9.9" height="9.9"/>
				</defs>
				<clipPath id="SVGID_46_">
					<use xlink:href="#SVGID_45_"  style="overflow:visible;"/>
				</clipPath>
				<g class="st62">
					<defs>
						<path id="SVGID_47_" d="M42,16.4c1.4,2.4,0.7,5.4-1.7,6.8c-2.4,1.4-5.4,0.7-6.8-1.7c-1.4-2.4-0.7-5.4,1.7-6.8
							C37.6,13.3,40.6,14,42,16.4"/>
					</defs>
					<clipPath id="SVGID_48_">
						<use xlink:href="#SVGID_47_"  style="overflow:visible;"/>
					</clipPath>
					
						<radialGradient id="SVGID_49_" cx="-336.7817" cy="347.0508" r="0.2493" gradientTransform="matrix(17.049 -10.2407 -10.2407 -17.049 9333.6025 2486.9312)" gradientUnits="userSpaceOnUse">
						<stop  offset="0" style="stop-color:#FFFBFA"/>
						<stop  offset="0.1273" style="stop-color:#FFFBFA"/>
						<stop  offset="0.5333" style="stop-color:#EDE8D7"/>
						<stop  offset="0.9939" style="stop-color:#DFD4BE"/>
						<stop  offset="1" style="stop-color:#DFD4BE"/>
					</radialGradient>
					<polygon class="st46" points="31,17.2 39.5,12.1 44.6,20.6 36.1,25.8 					"/>
				</g>
			</g>
		</g>
		<g class="st43">
			<g>
				<defs>
					
						<rect id="SVGID_50_" x="33.2" y="14.3" transform="matrix(-0.8572 0.5149 -0.5149 -0.8572 79.9395 15.7307)" width="9.3" height="9.3"/>
				</defs>
				<clipPath id="SVGID_51_">
					<use xlink:href="#SVGID_50_"  style="overflow:visible;"/>
				</clipPath>
				<g class="st63">
					<defs>
						<path id="SVGID_52_" d="M41.8,16.6c1.3,2.2,0.6,5-1.6,6.4c-2.2,1.3-5,0.6-6.4-1.6c-1.3-2.2-0.6-5,1.6-6.4
							C37.6,13.7,40.4,14.4,41.8,16.6"/>
					</defs>
					<clipPath id="SVGID_53_">
						<use xlink:href="#SVGID_52_"  style="overflow:visible;"/>
					</clipPath>
					
						<radialGradient id="SVGID_54_" cx="-337.9399" cy="347.0039" r="0.2498" gradientTransform="matrix(15.9138 -9.5588 -9.5588 -15.9138 8732.6367 2310.7942)" gradientUnits="userSpaceOnUse">
						<stop  offset="0" style="stop-color:#FFFBFA"/>
						<stop  offset="0.1273" style="stop-color:#FFFBFA"/>
						<stop  offset="0.5333" style="stop-color:#F0EADA"/>
						<stop  offset="0.9939" style="stop-color:#E1D8C2"/>
						<stop  offset="1" style="stop-color:#E1D8C2"/>
					</radialGradient>
					<polygon class="st36" points="31.4,17.4 39.4,12.6 44.1,20.5 36.2,25.3 					"/>
				</g>
			</g>
		</g>
		<g class="st34">
			<g>
				<defs>
					
						<rect id="SVGID_55_" x="33.5" y="14.6" transform="matrix(-0.8572 0.515 -0.515 -0.8572 79.9393 15.7294)" width="8.6" height="8.6"/>
				</defs>
				<clipPath id="SVGID_56_">
					<use xlink:href="#SVGID_55_"  style="overflow:visible;"/>
				</clipPath>
				<g class="st64">
					<defs>
						<path id="SVGID_57_" d="M41.5,16.7c1.2,2,0.6,4.7-1.5,5.9c-2,1.2-4.7,0.6-5.9-1.5c-1.2-2-0.6-4.7,1.5-5.9
							C37.6,14,40.3,14.7,41.5,16.7"/>
					</defs>
					<clipPath id="SVGID_58_">
						<use xlink:href="#SVGID_57_"  style="overflow:visible;"/>
					</clipPath>
					
						<radialGradient id="SVGID_59_" cx="-339.3423" cy="346.9297" r="0.2498" gradientTransform="matrix(14.7787 -8.8769 -8.8769 -14.7787 8132.4834 2133.7927)" gradientUnits="userSpaceOnUse">
						<stop  offset="0" style="stop-color:#FFFBFB"/>
						<stop  offset="0.1273" style="stop-color:#FFFBFB"/>
						<stop  offset="0.5333" style="stop-color:#F1ECDD"/>
						<stop  offset="0.9939" style="stop-color:#E4DBC7"/>
						<stop  offset="1" style="stop-color:#E4DBC7"/>
					</radialGradient>
					<polygon class="st73" points="31.9,17.5 39.3,13 43.7,20.4 36.3,24.9 					"/>
				</g>
			</g>
		</g>
		<g class="st54">
			<g>
				<defs>
					
						<rect id="SVGID_60_" x="33.8" y="15" transform="matrix(-0.8572 0.5149 -0.5149 -0.8572 79.9387 15.7315)" width="7.9" height="7.9"/>
				</defs>
				<clipPath id="SVGID_61_">
					<use xlink:href="#SVGID_60_"  style="overflow:visible;"/>
				</clipPath>
				<g class="st65">
					<defs>
						<path id="SVGID_62_" d="M41.2,16.9c1.1,1.9,0.5,4.3-1.4,5.5c-1.9,1.1-4.3,0.5-5.5-1.4c-1.1-1.9-0.5-4.3,1.4-5.5
							C37.6,14.4,40.1,15,41.2,16.9"/>
					</defs>
					<clipPath id="SVGID_63_">
						<use xlink:href="#SVGID_62_"  style="overflow:visible;"/>
					</clipPath>
					
						<radialGradient id="SVGID_64_" cx="-340.9121" cy="346.8242" r="0.2495" gradientTransform="matrix(13.6431 -8.1948 -8.1948 -13.6431 7531.0322 1956.9912)" gradientUnits="userSpaceOnUse">
						<stop  offset="0" style="stop-color:#FFFCFC"/>
						<stop  offset="0.1273" style="stop-color:#FFFCFC"/>
						<stop  offset="0.5333" style="stop-color:#F2EEE0"/>
						<stop  offset="0.9939" style="stop-color:#E5DECD"/>
						<stop  offset="1" style="stop-color:#E5DECD"/>
					</radialGradient>
					<polygon class="st47" points="32.3,17.6 39.1,13.5 43.2,20.3 36.4,24.4 					"/>
				</g>
			</g>
		</g>
		<g class="st48">
			<g>
				<defs>
					
						<rect id="SVGID_65_" x="34.1" y="15.3" transform="matrix(-0.8572 0.515 -0.515 -0.8572 79.9384 15.7262)" width="7.3" height="7.3"/>
				</defs>
				<clipPath id="SVGID_66_">
					<use xlink:href="#SVGID_65_"  style="overflow:visible;"/>
				</clipPath>
				<g class="st66">
					<defs>
						<path id="SVGID_67_" d="M40.9,17.1c1,1.7,0.5,4-1.2,5c-1.7,1-4,0.5-5-1.2c-1-1.7-0.5-4,1.2-5C37.6,14.8,39.9,15.3,40.9,17.1"
							/>
					</defs>
					<clipPath id="SVGID_68_">
						<use xlink:href="#SVGID_67_"  style="overflow:visible;"/>
					</clipPath>
					
						<radialGradient id="SVGID_69_" cx="-342.7383" cy="346.666" r="0.2498" gradientTransform="matrix(12.5079 -7.513 -7.513 -12.5079 6929.2373 1780.0278)" gradientUnits="userSpaceOnUse">
						<stop  offset="0" style="stop-color:#FFFCFD"/>
						<stop  offset="0.1273" style="stop-color:#FFFCFD"/>
						<stop  offset="0.5333" style="stop-color:#F4F0E3"/>
						<stop  offset="0.9939" style="stop-color:#E9E1D1"/>
						<stop  offset="1" style="stop-color:#E9E1D1"/>
					</radialGradient>
					<polygon class="st2" points="32.8,17.7 39,13.9 42.8,20.2 36.5,23.9 					"/>
				</g>
			</g>
		</g>
		<g class="st0">
			<g>
				<defs>
					
						<rect id="SVGID_70_" x="34.5" y="15.6" transform="matrix(-0.8572 0.515 -0.515 -0.8572 79.9396 15.7296)" width="6.6" height="6.6"/>
				</defs>
				<clipPath id="SVGID_71_">
					<use xlink:href="#SVGID_70_"  style="overflow:visible;"/>
				</clipPath>
				<g class="st67">
					<defs>
						<path id="SVGID_72_" d="M40.6,17.2c0.9,1.6,0.4,3.6-1.1,4.5c-1.6,0.9-3.6,0.4-4.5-1.1c-0.9-1.6-0.4-3.6,1.1-4.5
							C37.7,15.2,39.7,15.7,40.6,17.2"/>
					</defs>
					<clipPath id="SVGID_73_">
						<use xlink:href="#SVGID_72_"  style="overflow:visible;"/>
					</clipPath>
					
						<radialGradient id="SVGID_74_" cx="-344.9561" cy="346.5625" r="0.2493" gradientTransform="matrix(11.3727 -6.8311 -6.8311 -11.3727 6328.2744 1603.8762)" gradientUnits="userSpaceOnUse">
						<stop  offset="0" style="stop-color:#FFFCFD"/>
						<stop  offset="0.1273" style="stop-color:#FFFCFD"/>
						<stop  offset="0.5333" style="stop-color:#F6F1E7"/>
						<stop  offset="0.9939" style="stop-color:#EBE5D6"/>
						<stop  offset="1" style="stop-color:#EBE5D6"/>
					</radialGradient>
					<polygon class="st75" points="33.2,17.8 38.9,14.4 42.3,20.1 36.7,23.5 					"/>
				</g>
			</g>
		</g>
		<g class="st12">
			<g>
				<defs>
					
						<rect id="SVGID_75_" x="34.8" y="16" transform="matrix(-0.8572 0.515 -0.515 -0.8572 79.9389 15.7287)" width="6" height="6"/>
				</defs>
				<clipPath id="SVGID_76_">
					<use xlink:href="#SVGID_75_"  style="overflow:visible;"/>
				</clipPath>
				<g class="st68">
					<defs>
						<path id="SVGID_77_" d="M40.3,17.4c0.8,1.4,0.4,3.2-1,4.1c-1.4,0.8-3.2,0.4-4.1-1c-0.8-1.4-0.4-3.2,1-4.1
							C37.7,15.5,39.5,16,40.3,17.4"/>
					</defs>
					<clipPath id="SVGID_78_">
						<use xlink:href="#SVGID_77_"  style="overflow:visible;"/>
					</clipPath>
					
						<radialGradient id="SVGID_79_" cx="-347.6387" cy="346.3438" r="0.25" gradientTransform="matrix(10.2375 -6.1493 -6.1493 -10.2375 5726.5068 1426.8976)" gradientUnits="userSpaceOnUse">
						<stop  offset="0" style="stop-color:#FFFDFD"/>
						<stop  offset="0.1273" style="stop-color:#FFFDFD"/>
						<stop  offset="0.5333" style="stop-color:#F7F3E9"/>
						<stop  offset="0.9939" style="stop-color:#EEE7DB"/>
						<stop  offset="1" style="stop-color:#EEE7DB"/>
					</radialGradient>
					<polygon class="st11" points="33.7,17.9 38.8,14.9 41.9,20 36.8,23 					"/>
				</g>
			</g>
		</g>
		<g class="st16">
			<g>
				<defs>
					
						<rect id="SVGID_80_" x="35.1" y="16.3" transform="matrix(-0.8573 0.5148 -0.5148 -0.8573 79.939 15.735)" width="5.3" height="5.3"/>
				</defs>
				<clipPath id="SVGID_81_">
					<use xlink:href="#SVGID_80_"  style="overflow:visible;"/>
				</clipPath>
				<g class="st69">
					<defs>
						<path id="SVGID_82_" d="M40.1,17.6c0.8,1.3,0.3,2.9-0.9,3.6c-1.3,0.8-2.9,0.3-3.6-0.9c-0.8-1.3-0.3-2.9,0.9-3.6
							C37.7,15.9,39.3,16.3,40.1,17.6"/>
					</defs>
					<clipPath id="SVGID_83_">
						<use xlink:href="#SVGID_82_"  style="overflow:visible;"/>
					</clipPath>
					
						<radialGradient id="SVGID_84_" cx="-351.0254" cy="346.1113" r="0.2498" gradientTransform="matrix(9.1019 -5.4672 -5.4672 -9.1019 5125.0498 1250.0964)" gradientUnits="userSpaceOnUse">
						<stop  offset="0" style="stop-color:#FFFEFE"/>
						<stop  offset="0.1273" style="stop-color:#FFFEFE"/>
						<stop  offset="0.5333" style="stop-color:#F8F6ED"/>
						<stop  offset="0.9939" style="stop-color:#EFEBE0"/>
						<stop  offset="1" style="stop-color:#EFEBE0"/>
					</radialGradient>
					<polygon class="st3" points="34.2,18 38.7,15.3 41.4,19.9 36.9,22.6 					"/>
				</g>
			</g>
		</g>
		<g class="st29">
			<g>
				<defs>
					
						<rect id="SVGID_85_" x="35.5" y="16.6" transform="matrix(-0.8572 0.515 -0.515 -0.8572 79.939 15.7265)" width="4.6" height="4.6"/>
				</defs>
				<clipPath id="SVGID_86_">
					<use xlink:href="#SVGID_85_"  style="overflow:visible;"/>
				</clipPath>
				<g class="st70">
					<defs>
						<path id="SVGID_87_" d="M39.8,17.8c0.7,1.1,0.3,2.5-0.8,3.2c-1.1,0.7-2.5,0.3-3.2-0.8c-0.7-1.1-0.3-2.5,0.8-3.2
							C37.7,16.3,39.1,16.7,39.8,17.8"/>
					</defs>
					<clipPath id="SVGID_88_">
						<use xlink:href="#SVGID_87_"  style="overflow:visible;"/>
					</clipPath>
					
						<radialGradient id="SVGID_89_" cx="-355.4883" cy="345.8477" r="0.2498" gradientTransform="matrix(7.9668 -4.7853 -4.7853 -7.9668 4524.8848 1073.1256)" gradientUnits="userSpaceOnUse">
						<stop  offset="0" style="stop-color:#FFFEFE"/>
						<stop  offset="0.1273" style="stop-color:#FFFEFE"/>
						<stop  offset="0.5333" style="stop-color:#FAF7F0"/>
						<stop  offset="0.9939" style="stop-color:#F3F0E7"/>
						<stop  offset="1" style="stop-color:#F3F0E7"/>
					</radialGradient>
					<polygon class="st17" points="34.6,18.2 38.6,15.8 41,19.7 37,22.1 					"/>
				</g>
			</g>
		</g>
		<g class="st53">
			<g>
				<defs>
					
						<rect id="SVGID_90_" x="35.8" y="17" transform="matrix(-0.8572 0.515 -0.515 -0.8572 79.9399 15.7276)" width="4" height="4"/>
				</defs>
				<clipPath id="SVGID_91_">
					<use xlink:href="#SVGID_90_"  style="overflow:visible;"/>
				</clipPath>
				<g class="st71">
					<defs>
						<path id="SVGID_92_" d="M39.5,17.9c0.6,0.9,0.3,2.2-0.7,2.7c-0.9,0.6-2.2,0.3-2.7-0.7s-0.3-2.2,0.7-2.7
							C37.7,16.7,38.9,17,39.5,17.9"/>
					</defs>
					<clipPath id="SVGID_93_">
						<use xlink:href="#SVGID_92_"  style="overflow:visible;"/>
					</clipPath>
					
						<radialGradient id="SVGID_94_" cx="-361.2578" cy="345.3984" r="0.25" gradientTransform="matrix(6.8316 -4.1035 -4.1035 -6.8316 3923.1011 896.1547)" gradientUnits="userSpaceOnUse">
						<stop  offset="0" style="stop-color:#FFFFFF"/>
						<stop  offset="0.1273" style="stop-color:#FFFFFF"/>
						<stop  offset="0.5333" style="stop-color:#FAF8F3"/>
						<stop  offset="0.9939" style="stop-color:#F5F2EC"/>
						<stop  offset="1" style="stop-color:#F5F2EC"/>
					</radialGradient>
					<polygon class="st13" points="35.1,18.3 38.5,16.2 40.5,19.6 37.1,21.7 					"/>
				</g>
			</g>
		</g>
		<g class="st44">
			<g>
				<defs>
					
						<rect id="SVGID_95_" x="36.1" y="17.3" transform="matrix(-0.8573 0.5148 -0.5148 -0.8573 79.9397 15.7384)" width="3.3" height="3.3"/>
				</defs>
				<clipPath id="SVGID_96_">
					<use xlink:href="#SVGID_95_"  style="overflow:visible;"/>
				</clipPath>
				<g class="st72">
					<defs>
						<path id="SVGID_97_" d="M39.2,18.1c0.5,0.8,0.2,1.8-0.6,2.3c-0.8,0.5-1.8,0.2-2.3-0.6c-0.5-0.8-0.2-1.8,0.6-2.3
							C37.7,17.1,38.7,17.3,39.2,18.1"/>
					</defs>
					<clipPath id="SVGID_98_">
						<use xlink:href="#SVGID_97_"  style="overflow:visible;"/>
					</clipPath>
					
						<radialGradient id="SVGID_99_" cx="-369.377" cy="344.9375" r="0.2495" gradientTransform="matrix(5.6964 -3.4216 -3.4216 -5.6964 3322.1382 719.995)" gradientUnits="userSpaceOnUse">
						<stop  offset="0" style="stop-color:#FFFFFF"/>
						<stop  offset="0.1273" style="stop-color:#FFFFFF"/>
						<stop  offset="0.5333" style="stop-color:#FCFAF6"/>
						<stop  offset="0.9939" style="stop-color:#F9F6F1"/>
						<stop  offset="1" style="stop-color:#F9F6F1"/>
					</radialGradient>
					<polygon class="st40" points="35.5,18.4 38.4,16.7 40.1,19.5 37.2,21.2 					"/>
				</g>
			</g>
		</g>
		<g class="st4">
			<g>
				<defs>
					
						<rect id="SVGID_100_" x="36.5" y="17.6" transform="matrix(-0.8571 0.5151 -0.5151 -0.8571 79.9391 15.7233)" width="2.7" height="2.7"/>
				</defs>
				<clipPath id="SVGID_101_">
					<use xlink:href="#SVGID_100_"  style="overflow:visible;"/>
				</clipPath>
				<g class="st50">
					<defs>
						<path id="SVGID_102_" d="M38.9,18.3c0.4,0.6,0.2,1.4-0.5,1.8c-0.6,0.4-1.4,0.2-1.8-0.5c-0.4-0.6-0.2-1.4,0.5-1.8
							C37.7,17.4,38.5,17.6,38.9,18.3"/>
					</defs>
					<clipPath id="SVGID_103_">
						<use xlink:href="#SVGID_102_"  style="overflow:visible;"/>
					</clipPath>
					
						<radialGradient id="SVGID_104_" cx="-381.5464" cy="344.127" r="0.2498" gradientTransform="matrix(4.5608 -2.7395 -2.7395 -4.5608 2720.6863 543.2016)" gradientUnits="userSpaceOnUse">
						<stop  offset="0" style="stop-color:#FFFFFF"/>
						<stop  offset="0.1273" style="stop-color:#FFFFFF"/>
						<stop  offset="0.5333" style="stop-color:#FCFCF9"/>
						<stop  offset="0.9939" style="stop-color:#FAF8F5"/>
						<stop  offset="1" style="stop-color:#FAF8F5"/>
					</radialGradient>
					<polygon class="st49" points="36,18.5 38.2,17.1 39.6,19.4 37.3,20.8 					"/>
				</g>
			</g>
		</g>
		<g class="st77">
			<g>
				<defs>
					
						<rect id="SVGID_105_" x="36.8" y="17.9" transform="matrix(-0.8571 0.5152 -0.5152 -0.8571 79.9376 15.7169)" width="2" height="2"/>
				</defs>
				<clipPath id="SVGID_106_">
					<use xlink:href="#SVGID_105_"  style="overflow:visible;"/>
				</clipPath>
				<g class="st51">
					<defs>
						<path id="SVGID_107_" d="M38.6,18.4c0.3,0.5,0.1,1.1-0.3,1.4c-0.5,0.3-1.1,0.1-1.4-0.3c-0.3-0.5-0.1-1.1,0.3-1.4
							C37.7,17.8,38.4,18,38.6,18.4"/>
					</defs>
					<clipPath id="SVGID_108_">
						<use xlink:href="#SVGID_107_"  style="overflow:visible;"/>
					</clipPath>
					
						<radialGradient id="SVGID_109_" cx="-401.7681" cy="342.9395" r="0.2493" gradientTransform="matrix(3.4256 -2.0576 -2.0576 -3.4256 2119.7148 367.0418)" gradientUnits="userSpaceOnUse">
						<stop  offset="0" style="stop-color:#FFFFFF"/>
						<stop  offset="0.1273" style="stop-color:#FFFFFF"/>
						<stop  offset="0.5333" style="stop-color:#FFFFFD"/>
						<stop  offset="0.9939" style="stop-color:#FDFDFB"/>
						<stop  offset="1" style="stop-color:#FDFDFB"/>
					</radialGradient>
					<polygon class="st42" points="36.4,18.6 38.1,17.6 39.2,19.3 37.4,20.3 					"/>
				</g>
			</g>
		</g>
		<g class="st27">
			<g>
				<defs>
					
						<rect id="SVGID_110_" x="37.1" y="18.3" transform="matrix(-0.8572 0.5149 -0.5149 -0.8572 79.9394 15.7319)" width="1.3" height="1.3"/>
				</defs>
				<clipPath id="SVGID_111_">
					<use xlink:href="#SVGID_110_"  style="overflow:visible;"/>
				</clipPath>
				<path class="st5" d="M38.4,18.6c0.2,0.3,0.1,0.7-0.2,0.9c-0.3,0.2-0.7,0.1-0.9-0.2c-0.2-0.3-0.1-0.7,0.2-0.9
					C37.8,18.2,38.2,18.3,38.4,18.6"/>
			</g>
		</g>
	</g>
</g>
<ellipse class="st26" cx="94.7" cy="37.3" rx="1.6" ry="1.5"/>
<linearGradient id="SVGID_112_" gradientUnits="userSpaceOnUse" x1="65.6006" y1="69.4297" x2="135.7141" y2="27.3152">
	<stop  offset="0" style="stop-color:#FBB03C;stop-opacity:0.21"/>
	<stop  offset="2.683938e-03" style="stop-color:#FBB13B;stop-opacity:0.21"/>
	<stop  offset="7.961375e-02" style="stop-color:#FAC338;stop-opacity:0.2092"/>
	<stop  offset="0.1663" style="stop-color:#FAD233;stop-opacity:0.2083"/>
	<stop  offset="0.2678" style="stop-color:#FADD2E;stop-opacity:0.2073"/>
	<stop  offset="0.3919" style="stop-color:#FAE529;stop-opacity:0.2061"/>
	<stop  offset="0.5625" style="stop-color:#FAEB26;stop-opacity:0.2044"/>
	<stop  offset="1" style="stop-color:#FAED24;stop-opacity:0.2"/>
</linearGradient>
<polyline class="st18" points="164.6,75.5 135.8,64.3 36.7,21.3 "/>
<linearGradient id="SVGID_113_" gradientUnits="userSpaceOnUse" x1="62.3623" y1="59.7412" x2="74.4336" y2="52.4904">
	<stop  offset="0" style="stop-color:#FBB03C;stop-opacity:0.21"/>
	<stop  offset="2.683938e-03" style="stop-color:#FBB13B;stop-opacity:0.21"/>
	<stop  offset="7.961375e-02" style="stop-color:#FAC338;stop-opacity:0.2092"/>
	<stop  offset="0.1663" style="stop-color:#FAD233;stop-opacity:0.2083"/>
	<stop  offset="0.2678" style="stop-color:#FADD2E;stop-opacity:0.2073"/>
	<stop  offset="0.3919" style="stop-color:#FAE529;stop-opacity:0.2061"/>
	<stop  offset="0.5625" style="stop-color:#FAEB26;stop-opacity:0.2044"/>
	<stop  offset="1" style="stop-color:#FAED24;stop-opacity:0.2"/>
</linearGradient>
<polyline class="st19" points="98.2,92 81.2,73.5 38.6,20.2 "/>
<linearGradient id="SVGID_114_" gradientUnits="userSpaceOnUse" x1="58.5522" y1="60.2598" x2="60.7276" y2="58.9531">
	<stop  offset="0" style="stop-color:#FBB03C;stop-opacity:0.21"/>
	<stop  offset="2.683938e-03" style="stop-color:#FBB13B;stop-opacity:0.21"/>
	<stop  offset="7.961375e-02" style="stop-color:#FAC338;stop-opacity:0.2092"/>
	<stop  offset="0.1663" style="stop-color:#FAD233;stop-opacity:0.2083"/>
	<stop  offset="0.2678" style="stop-color:#FADD2E;stop-opacity:0.2073"/>
	<stop  offset="0.3919" style="stop-color:#FAE529;stop-opacity:0.2061"/>
	<stop  offset="0.5625" style="stop-color:#FAEB26;stop-opacity:0.2044"/>
	<stop  offset="1" style="stop-color:#FAED24;stop-opacity:0.2"/>
</linearGradient>
<polyline class="st20" points="81.8,97.8 66.8,74 38,21.1 "/>
<linearGradient id="SVGID_115_" gradientUnits="userSpaceOnUse" x1="63.7847" y1="64.7148" x2="98.2188" y2="44.0316">
	<stop  offset="0" style="stop-color:#FBB03C;stop-opacity:0.21"/>
	<stop  offset="2.683938e-03" style="stop-color:#FBB13B;stop-opacity:0.21"/>
	<stop  offset="7.961375e-02" style="stop-color:#FAC338;stop-opacity:0.2092"/>
	<stop  offset="0.1663" style="stop-color:#FAD233;stop-opacity:0.2083"/>
	<stop  offset="0.2678" style="stop-color:#FADD2E;stop-opacity:0.2073"/>
	<stop  offset="0.3919" style="stop-color:#FAE529;stop-opacity:0.2061"/>
	<stop  offset="0.5625" style="stop-color:#FAEB26;stop-opacity:0.2044"/>
	<stop  offset="1" style="stop-color:#FAED24;stop-opacity:0.2"/>
</linearGradient>
<polyline class="st21" points="124.9,88.4 93.7,66 37.1,20.4 "/>
<linearGradient id="SVGID_116_" gradientUnits="userSpaceOnUse" x1="44.1504" y1="62.8057" x2="59.7407" y2="53.4412">
	<stop  offset="0" style="stop-color:#FBB03C;stop-opacity:0.21"/>
	<stop  offset="2.683938e-03" style="stop-color:#FBB13B;stop-opacity:0.21"/>
	<stop  offset="7.961375e-02" style="stop-color:#FAC338;stop-opacity:0.2092"/>
	<stop  offset="0.1663" style="stop-color:#FAD233;stop-opacity:0.2083"/>
	<stop  offset="0.2678" style="stop-color:#FADD2E;stop-opacity:0.2073"/>
	<stop  offset="0.3919" style="stop-color:#FAE529;stop-opacity:0.2061"/>
	<stop  offset="0.5625" style="stop-color:#FAEB26;stop-opacity:0.2044"/>
	<stop  offset="1" style="stop-color:#FAED24;stop-opacity:0.2"/>
</linearGradient>
<polyline class="st22" points="65.3,98 56.9,80 38.6,18.3 "/>
<linearGradient id="SVGID_117_" gradientUnits="userSpaceOnUse" x1="64.7402" y1="65.918" x2="115.2837" y2="35.5585">
	<stop  offset="0" style="stop-color:#FBB03C;stop-opacity:0.21"/>
	<stop  offset="2.683938e-03" style="stop-color:#FBB13B;stop-opacity:0.21"/>
	<stop  offset="7.961375e-02" style="stop-color:#FAC338;stop-opacity:0.2092"/>
	<stop  offset="0.1663" style="stop-color:#FAD233;stop-opacity:0.2083"/>
	<stop  offset="0.2678" style="stop-color:#FADD2E;stop-opacity:0.2073"/>
	<stop  offset="0.3919" style="stop-color:#FAE529;stop-opacity:0.2061"/>
	<stop  offset="0.5625" style="stop-color:#FAEB26;stop-opacity:0.2044"/>
	<stop  offset="1" style="stop-color:#FAED24;stop-opacity:0.2"/>
</linearGradient>
<polyline class="st23" points="142.5,80.8 112.8,65.1 37.5,20.6 "/>
<linearGradient id="SVGID_118_" gradientUnits="userSpaceOnUse" x1="68.3062" y1="72.3418" x2="152.1937" y2="21.9538">
	<stop  offset="0" style="stop-color:#FBB03C;stop-opacity:0.21"/>
	<stop  offset="2.683938e-03" style="stop-color:#FBB13B;stop-opacity:0.21"/>
	<stop  offset="7.961375e-02" style="stop-color:#FAC338;stop-opacity:0.2092"/>
	<stop  offset="0.1663" style="stop-color:#FAD233;stop-opacity:0.2083"/>
	<stop  offset="0.2678" style="stop-color:#FADD2E;stop-opacity:0.2073"/>
	<stop  offset="0.3919" style="stop-color:#FAE529;stop-opacity:0.2061"/>
	<stop  offset="0.5625" style="stop-color:#FAEB26;stop-opacity:0.2044"/>
	<stop  offset="1" style="stop-color:#FAED24;stop-opacity:0.2"/>
</linearGradient>
<polyline class="st24" points="183.6,74.2 154.5,61.5 36.9,20.1 "/>
<linearGradient id="SVGID_119_" gradientUnits="userSpaceOnUse" x1="32.6519" y1="66.2891" x2="57.2181" y2="51.5331">
	<stop  offset="0" style="stop-color:#FBB03C;stop-opacity:0.21"/>
	<stop  offset="2.683938e-03" style="stop-color:#FBB13B;stop-opacity:0.21"/>
	<stop  offset="7.961375e-02" style="stop-color:#FAC338;stop-opacity:0.2092"/>
	<stop  offset="0.1663" style="stop-color:#FAD233;stop-opacity:0.2083"/>
	<stop  offset="0.2678" style="stop-color:#FADD2E;stop-opacity:0.2073"/>
	<stop  offset="0.3919" style="stop-color:#FAE529;stop-opacity:0.2061"/>
	<stop  offset="0.5625" style="stop-color:#FAEB26;stop-opacity:0.2044"/>
	<stop  offset="1" style="stop-color:#FAED24;stop-opacity:0.2"/>
</linearGradient>
<polyline class="st25" points="51.7,98.1 46.8,78.8 38.1,19.8 "/>
<g>
	<path class="st39" d="M59.5,57.2c0.1,0,0.2,0.1,0.3,0.2c0.1,0.1,0.1,0.3,0,0.4c-0.4,0.8-1,1.6-1.6,2.4c-0.6,0.8-1.2,1.5-1.9,2.2
		c-0.7,0.7-1.3,1.2-2,1.6c-0.7,0.4-1.3,0.6-1.8,0.6c-0.6,0-1-0.2-1.3-0.5c-0.3-0.4-0.5-0.8-0.5-1.4c0-0.6,0.2-1.3,0.5-2.1
		c0.3-0.8,0.7-1.6,1.2-2.4c0.5-0.8,1-1.7,1.5-2.5c0.5-0.8,1.1-1.6,1.5-2.2c0.5-0.6,0.8-1.2,1.1-1.6c0.3-0.4,0.4-0.6,0.4-0.6
		c0.4,0,0.8,0.1,1,0.4c0.2,0.3,0.4,0.6,0.4,0.9c0,0.4-0.2,0.9-0.5,1.5c-0.3,0.6-0.7,1.2-1.2,1.8s-1,1.3-1.6,2
		c-0.6,0.7-1.1,1.4-1.6,2c-0.5,0.6-0.9,1.3-1.2,1.8c-0.3,0.6-0.5,1-0.5,1.4c0,0.2,0.1,0.4,0.3,0.4c0.2,0.1,0.3,0.1,0.5,0.1
		c0.5,0,1-0.2,1.6-0.6c0.6-0.4,1.2-0.9,1.8-1.5c0.6-0.6,1.2-1.3,1.8-2.1c0.6-0.8,1.1-1.5,1.5-2.3C59.2,57.3,59.4,57.2,59.5,57.2z
		 M61.2,43.2c0.4,0,0.7,0.1,1,0.4c0.3,0.3,0.4,0.6,0.4,1s-0.1,0.7-0.4,1c-0.3,0.3-0.6,0.4-1,0.4c-0.4,0-0.7-0.1-0.9-0.4
		c-0.3-0.3-0.4-0.6-0.4-1s0.1-0.7,0.4-1C60.6,43.3,60.9,43.2,61.2,43.2z"/>
	<path class="st39" d="M59.9,57.9c-0.4,1.2-0.7,2.2-0.9,2.9s-0.2,1.2-0.2,1.3c0,0.3,0.1,0.7,0.2,1c0.1,0.3,0.4,0.5,1,0.5
		c0.3,0,0.6-0.1,0.9-0.2c0.3-0.1,0.7-0.4,1.2-0.9c0.4-0.4,1-1.1,1.5-1.9c0.6-0.8,1.3-1.9,2-3.3c0.1-0.1,0.2-0.2,0.4-0.2
		c0.2,0,0.4,0.1,0.4,0.4c0,0.1,0,0.2,0,0.2c-1.3,2.4-2.5,4.1-3.4,5.1c-1,1-1.9,1.5-2.9,1.5c-0.4,0-0.7-0.1-1-0.2
		c-0.2-0.1-0.4-0.3-0.6-0.5s-0.2-0.4-0.2-0.7c0-0.3,0-0.5,0-0.8c0-0.6,0.1-1.1,0.2-1.7s0.3-1.2,0.6-1.9c1.2-4,2.5-7.7,4-11.1
		c1.5-3.3,3-6.2,4.6-8.6c1.6-2.4,3.1-4.2,4.5-5.6c1.5-1.3,2.7-2,3.8-2c0.3,0,0.7,0.1,1,0.2c0.3,0.1,0.5,0.4,0.5,0.9
		c0,0.3-0.1,0.8-0.2,1.2c-0.2,0.5-0.4,1-0.6,1.5c-0.3,0.5-0.6,1.1-0.9,1.7c-0.3,0.6-0.7,1.1-1,1.6c-1,1.6-2.2,3.2-3.4,4.9
		c-1.3,1.6-2.5,3.2-3.8,4.9c-1.3,1.6-2.6,3.2-3.8,4.9C62,54.8,60.9,56.4,59.9,57.9z M73.7,38.1c0.2-0.3,0.5-0.7,0.8-1.2
		c0.3-0.5,0.6-0.9,0.9-1.5c0.3-0.5,0.5-1,0.7-1.6c0.2-0.5,0.3-1,0.3-1.5c-0.1,0-0.3,0.1-0.7,0.4c-0.4,0.2-1.1,0.8-1.9,1.7
		c-0.8,0.9-1.9,2.3-3.2,4c-1.3,1.8-2.8,4.2-4.6,7.4c-0.9,1.6-1.8,3.2-2.6,4.6c-0.8,1.4-1.4,2.7-2,4c1-1.4,2.1-2.7,3.1-4.1
		c1.1-1.4,2.2-2.7,3.2-4.1c1.1-1.4,2.1-2.7,3.2-4.1C71.9,40.8,72.9,39.4,73.7,38.1z"/>
	<path class="st39" d="M72.4,57.2c0.1,0,0.2,0.1,0.3,0.2c0.1,0.1,0.1,0.3,0,0.4c-0.6,1-1.2,1.9-1.8,2.8c-0.6,0.8-1.3,1.6-2.1,2.4
		c-0.7,0.8-1.5,1.6-2.4,2.4s-1.8,1.7-2.9,2.6c-0.1,0.2-0.1,0.3-0.2,0.4c-0.1,0.1-0.1,0.2-0.2,0.4c-0.3,0.6-0.6,1.3-1,2.2
		c-0.4,0.9-0.8,1.9-1.2,2.9C60.5,75,60,76,59.5,77c-0.5,1-1.1,2-1.6,2.8c-0.6,0.9-1.2,1.6-1.9,2.1c-0.7,0.6-1.3,0.9-2,0.9
		c-0.8,0-1.2-0.5-1.2-1.6c0-0.6,0.1-1.3,0.4-2.1c0.3-0.8,0.7-1.7,1.3-2.7c0.6-0.9,1.3-1.9,2.1-3c0.8-1,1.8-2,2.8-3l1.7-1.6
		c0.8-2.2,1.5-4.4,2.3-6.5c0.7-2.1,1.5-4,2.3-5.6c0.8-1.6,1.6-3,2.4-4c0.8-1,1.7-1.5,2.7-1.5c0.4,0,0.6,0,0.7,0.1
		c0.1,0.1,0.2,0.2,0.2,0.3c0,0.1,0,0.2-0.1,0.3c-0.8,0.7-1.5,1.5-2.1,2.4c-0.6,0.9-1.2,2-1.7,3.1c-0.5,1.1-1,2.2-1.5,3.4
		c-0.5,1.2-0.9,2.3-1.4,3.4l-0.8,2c0.9-0.8,1.7-1.5,2.4-2.2c0.7-0.7,1.4-1.4,2.1-2.1c0.7-0.7,1.3-1.4,1.8-2.2
		c0.6-0.7,1.1-1.6,1.6-2.5C72.1,57.3,72.2,57.2,72.4,57.2z M57.2,79.4c0.5-0.9,1.1-2.1,1.6-3.7c0.6-1.6,1.2-3.3,1.8-5.2L60,71.1
		c-1.2,1-2.1,2.1-3,3.1c-0.8,1-1.5,2-2,2.9c-0.5,0.9-0.9,1.7-1.2,2.4c-0.3,0.7-0.4,1.3-0.4,1.8c0,0.2,0,0.4,0.1,0.6
		c0.1,0.2,0.2,0.2,0.4,0.2c0.5,0,1-0.2,1.6-0.7C56.2,80.8,56.7,80.2,57.2,79.4z M74.4,43.2c0.4,0,0.7,0.1,1,0.4
		c0.3,0.3,0.4,0.6,0.4,1s-0.1,0.7-0.4,1c-0.3,0.3-0.6,0.4-1,0.4c-0.4,0-0.7-0.1-0.9-0.4c-0.3-0.3-0.4-0.6-0.4-1s0.1-0.7,0.4-1
		C73.7,43.3,74,43.2,74.4,43.2z"/>
	<path class="st39" d="M87,57.3c0.1,0.1,0.2,0.2,0.2,0.3c0,0.1,0,0.2-0.1,0.2c-0.4,0.7-0.9,1.5-1.5,2.2c-0.6,0.8-1.2,1.5-1.8,2.1
		c-0.6,0.6-1.2,1.2-1.9,1.6s-1.2,0.7-1.7,0.7c-0.7,0-1.2-0.1-1.6-0.3s-0.7-0.5-0.8-0.8c-0.2-0.3-0.3-0.6-0.4-1
		c0-0.3-0.1-0.6-0.1-0.9c-0.5,0.8-1.1,1.5-1.7,2.1c-0.6,0.6-1.3,0.9-2.1,0.9c-1.9,0-2.9-0.9-2.9-2.8c0-1,0.3-2.2,0.9-3.4
		c0.6-1.2,1.4-2.3,2.3-3.3c0.9-1,1.9-1.9,3-2.6c1.1-0.7,2.1-1,3.1-1c0.4,0,0.8,0.1,1.2,0.3c0.4,0.2,0.6,0.5,0.6,1
		c0.4-0.4,0.8-0.7,1.2-0.9c0.3-0.2,0.6-0.2,0.9-0.2c0.3,0,0.5,0.1,0.7,0.2c0.2,0.2,0.2,0.3,0.2,0.5c0,0.1,0,0.2-0.1,0.2
		c-0.4,0.4-0.9,1.1-1.5,1.9S82,56,81.5,57c-0.5,0.9-1,1.9-1.4,2.8c-0.4,0.9-0.6,1.7-0.6,2.4c0,0.3,0.1,0.6,0.2,0.9
		c0.1,0.3,0.3,0.5,0.6,0.5c0.3,0,0.7-0.2,1.3-0.5c0.5-0.4,1.1-0.8,1.6-1.4c0.6-0.6,1.1-1.2,1.7-2c0.6-0.7,1.1-1.5,1.5-2.3
		c0-0.1,0.1-0.2,0.3-0.2C86.9,57.2,86.9,57.2,87,57.3z M73.6,63.6c0.8,0,1.5-0.4,2.1-1.1c0.6-0.7,1.1-1.6,1.7-2.6
		c0.5-1,1.1-2.1,1.6-3.3c0.5-1.2,1.2-2.2,1.9-3.1c0.1-0.4,0.2-0.7,0-1s-0.4-0.4-0.9-0.4c-0.9,0-1.7,0.4-2.6,1.1
		c-0.9,0.8-1.6,1.7-2.4,2.7c-0.7,1.1-1.3,2.2-1.7,3.3c-0.4,1.2-0.7,2.2-0.7,3c0,0.3,0.1,0.6,0.2,0.9C73,63.5,73.2,63.6,73.6,63.6z"
		/>
	<path class="st39" d="M141.2,35.9l-1.7,0.4c-1.8,3.6-3.5,8.2-5,13.9c-0.5,2-1.3,4.1-2.3,6.5s-2.3,4.6-3.8,6.6
		c-5.4,7.3-12.2,11-20.6,11c-3.9,0-7-0.9-9.3-2.7c-1.6-1.2-2.6-2.8-3.1-4.8c-0.2-0.7-0.3-1.6-0.3-2.8s0.3-2.4,0.8-4
		c0.6-1.5,1.4-2.9,2.7-4.1c1.2-1.2,2.2-1.8,2.9-1.9c0.3,0,0.4,0,0.5,0.1c0.1,0.1-0.1,0.3-0.4,0.5c-0.8,0.4-1.8,1.2-2.8,2.5
		c-1.6,2-2.4,4.3-2.4,6.8c0,1.9,0.6,3.6,1.7,4.9c1.5,1.7,3.5,2.9,6.2,3.5c1.2,0.3,2.1,0.4,2.7,0.4c0.6,0,1.3,0,1.9,0
		c0.7,0,1.5-0.2,2.6-0.5c2.2-0.6,4.4-1.6,6.4-2.9c2-1.3,3.8-2.8,5.3-4.4c1.5-1.6,2.8-3.3,4-5.2c2.1-3.2,3.7-6.4,4.8-9.5
		c1.9-5.3,3.9-9.9,6.1-13.9c-4.3,0.9-7.7,2-10.2,3.1c-2.6,1.2-4.6,2.6-6,4c-1.8,1.9-2.9,4.1-3.4,6.5c-0.2,0.7-0.2,1.3-0.2,1.9
		c0,1.2,0.3,2.2,0.9,2.9c0.6,0.7,1.3,1.1,2,1.1c0.7,0,1.5-0.2,2.3-0.5c0.8-0.3,1.5-0.9,2.2-1.7c0.9-1.2,1.3-2.6,1.3-4.2
		c0-0.8-0.1-1.3-0.3-1.5c-0.1-0.1,0-0.2,0.1-0.4c0.3-0.4,0.5-0.4,0.8,0c0.3,0.7,0.5,1.5,0.5,2.3s-0.3,1.8-0.8,2.8
		c-0.9,1.8-2.2,3.1-4,3.8c-0.9,0.3-1.8,0.5-2.8,0.5c-1,0-2-0.5-3.2-1.4s-1.7-2.3-1.7-4c0-0.5,0.1-1.1,0.2-1.7
		c1.5-7.4,9.2-12.3,23-14.8c0.2-0.5,0.7-1.2,1.3-2c0.6-0.8,1.2-1.3,1.6-1.4c0.4-0.2,0.8-0.2,1.1-0.2c0.9,0,1.3,0.4,1.4,1.2
		c0,0.9-0.3,1.5-1,2C142.8,35.2,142.1,35.6,141.2,35.9z M140.2,35.2c1.8-0.4,2.7-0.9,2.6-1.6c-0.1-0.3-0.2-0.5-0.5-0.5
		C142,33,141.3,33.7,140.2,35.2z"/>
	<path class="st39" d="M150.3,57.3c0.1,0,0.1,0.1,0.2,0.3c0,0.1,0,0.2,0,0.3c-0.4,0.8-0.9,1.5-1.5,2.3c-0.5,0.8-1.1,1.5-1.7,2.1
		s-1.1,1.1-1.7,1.5c-0.6,0.4-1.1,0.6-1.6,0.6c-2.5,0-3.7-0.7-3.7-2.2c0-0.7,0.3-1.5,0.8-2.4c0.5-0.9,1.1-1.8,1.8-2.8
		c0.7-0.9,1.3-1.9,1.8-2.7c0.5-0.9,0.8-1.6,0.8-2.2c0-0.4-0.2-0.7-0.7-0.7c-0.7,0-1.5,0.4-2.4,1.2c-0.9,0.8-1.9,1.8-3,3
		c-0.2,0.7-0.4,1.4-0.7,2.2c-0.3,0.8-0.7,1.5-1.1,2.3c-0.2,0.3-0.4,0.7-0.7,1.2c-0.3,0.5-0.7,0.9-1.1,1.4s-0.8,0.8-1.3,1.2
		c-0.5,0.3-0.9,0.5-1.4,0.6c-0.3,0-0.4-0.1-0.4-0.4c0-0.1,0-0.2,0.1-0.3l0.9-1.4c0.9-1.5,1.6-2.8,2.2-3.8s1.1-2,1.4-2.7
		c0.4-0.8,0.6-1.4,0.8-1.8c0.1-0.5,0.2-0.8,0.2-1.1c0-0.4-0.1-0.6-0.4-0.6c-0.4,0-1,0.4-1.8,1.3c-0.8,0.9-1.8,2.4-3,4.4
		c0,0.1-0.1,0.2-0.3,0.2c-0.1,0-0.2,0-0.3-0.1c-0.1-0.1-0.1-0.2-0.1-0.3c0-0.1,0-0.1,0.1-0.2c0.4-0.7,0.9-1.5,1.3-2.2
		c0.5-0.7,0.9-1.4,1.4-2c0.5-0.6,0.9-1.1,1.4-1.4c0.5-0.4,0.9-0.5,1.3-0.5c0.6,0,1,0.3,1.3,0.8c0.3,0.5,0.4,1.1,0.4,1.7
		c0,0.1,0,0.1,0,0.1c0,0,0,0.1,0,0.1c0.3-0.3,0.6-0.7,1-1.1c0.4-0.4,0.8-0.8,1.2-1.1s0.9-0.6,1.3-0.9c0.5-0.3,0.9-0.4,1.4-0.4
		c0.7,0,1.2,0.2,1.6,0.5c0.4,0.4,0.6,0.8,0.6,1.3c0,0.7-0.2,1.5-0.6,2.3c-0.4,0.9-0.8,1.8-1.3,2.6s-0.9,1.8-1.3,2.6
		c-0.4,0.9-0.6,1.6-0.6,2.2c0,0.4,0.1,0.7,0.3,0.9c0.2,0.2,0.4,0.3,0.7,0.3c0.4,0,0.8-0.2,1.4-0.5c0.5-0.3,1-0.8,1.6-1.4
		c0.5-0.6,1-1.2,1.5-1.9c0.5-0.7,1-1.4,1.4-2.2c0.1-0.1,0.1-0.1,0.3-0.2C150.1,57.2,150.2,57.2,150.3,57.3z"/>
	<path class="st39" d="M163.2,57.2c0.2-0.1,0.3,0,0.4,0.1c0.1,0.2,0.1,0.3-0.1,0.5c-0.6,1-1.5,2.1-2.6,3.3c-1.1,1.2-2.4,2.5-3.7,3.8
		c-1,2.3-2,4.5-3,6.6c-1,2.1-2,4-3,5.7c-1,1.7-1.9,3-2.8,4c-0.9,1-1.8,1.5-2.6,1.5c-0.4,0-0.8-0.1-1.2-0.4c-0.4-0.3-0.6-0.8-0.6-1.7
		c0-1,0.3-2.1,0.9-3.3c0.6-1.2,1.4-2.3,2.4-3.5c1-1.2,2.1-2.5,3.4-3.7c1.3-1.3,2.6-2.5,3.9-3.7l1.6-4.1l1.3-3.6
		c-0.4,0.6-0.8,1.3-1.3,2c-0.5,0.7-1,1.3-1.6,1.9c-0.5,0.6-1.1,1.1-1.7,1.5c-0.6,0.4-1.1,0.6-1.7,0.6c-0.9,0-1.6-0.2-2.1-0.7
		s-0.7-1.2-0.7-2.1c0-1,0.3-2.1,0.8-3.3c0.5-1.2,1.2-2.2,2-3.2c0.8-1,1.7-1.8,2.7-2.5c1-0.6,1.9-1,2.9-1h0.1c0.8,0,1.3,0.3,1.6,1
		c0.3,0.7,0.5,1.4,0.6,2.1c0.5-0.9,1-1.7,1.5-2.4c0.5-0.6,1.2-1,1.8-1c0.2,0,0.4,0.1,0.4,0.4c0-0.2-0.3,0.3-0.8,1.6
		c-0.5,1.2-1.3,3.1-2.4,5.6l-1.8,4.2c0.5-0.5,1-1,1.6-1.7c0.6-0.7,1.1-1.3,1.6-1.9c0.5-0.6,0.9-1.1,1.3-1.6
		C162.9,57.4,163.1,57.2,163.2,57.2z M147.4,81.3c1-1,2-2.7,3.1-5c1.1-2.4,2.3-5.1,3.6-8.2c-1.2,1.1-2.3,2.2-3.4,3.3
		c-1.1,1.1-2.1,2.2-2.9,3.3c-0.9,1.1-1.6,2.1-2.1,3.1c-0.5,1-0.8,1.9-0.8,2.8c0,0.9,0.3,1.3,1,1.3c0.2,0,0.5-0.1,0.8-0.2
		C147,81.6,147.2,81.4,147.4,81.3z M152.5,63.2c0.6-0.3,1.1-0.8,1.6-1.3c0.5-0.5,1-1.1,1.5-1.8c0.5-0.6,0.9-1.3,1.3-2
		c0.4-0.7,0.8-1.3,1.2-2c0.1-0.2,0.2-0.3,0.3-0.4c0-0.1,0.1-0.3,0.1-0.5c0-0.9-0.1-1.5-0.4-2.1s-0.6-0.8-1.1-0.8
		c-0.3,0-0.6,0.1-0.8,0.2c-1,0.4-1.8,1.1-2.5,2.1c-0.7,0.9-1.3,1.9-1.7,2.9c-0.4,1-0.8,1.9-1,2.8c-0.2,0.9-0.3,1.5-0.3,1.8
		c0,0.6,0.1,0.9,0.2,1.1c0.2,0.2,0.3,0.3,0.6,0.3s0.4,0,0.6-0.1S152.3,63.3,152.5,63.2z"/>
	<path class="st39" d="M177.5,57.3c0.1,0,0.1,0.1,0.2,0.3c0,0.1,0,0.2,0,0.3c-0.4,0.7-0.8,1.2-1.2,1.5c-0.4,0.3-0.7,0.4-1,0.4
		c-0.3,0-0.6-0.1-0.8-0.2c-0.2-0.2-0.4-0.4-0.6-0.6c-0.3,0.3-0.8,0.8-1.5,1.5c-0.7,0.6-1.3,1.2-2.1,1.8c-0.7,0.6-1.4,1.1-2.1,1.6
		c-0.7,0.4-1.2,0.7-1.7,0.7c-0.2,0-0.5-0.1-0.8-0.3c-0.3-0.2-0.4-0.6-0.4-1.3c0-0.2,0-0.5,0-0.7c0-0.3,0.1-0.6,0.2-0.9
		c0.2-0.8,0.5-1.6,0.9-2.4c0.4-0.8,0.7-1.6,1.1-2.3c0.3-0.7,0.6-1.4,0.9-2.1s0.4-1.2,0.4-1.6c0-0.5-0.2-0.7-0.6-0.7
		c-0.2,0-0.5,0.1-0.7,0.3c-0.3,0.2-0.6,0.5-1,0.9c-0.4,0.4-0.8,1-1.3,1.8c-0.5,0.7-1.1,1.7-1.7,2.9c-0.1,0.1-0.2,0.2-0.4,0.2
		c-0.1,0-0.2,0-0.3-0.1c0-0.1-0.1-0.2-0.1-0.3s0-0.2,0-0.2c1.2-2.1,2.2-3.7,3.1-4.7c0.9-1,1.7-1.5,2.4-1.5c0.6,0,1.1,0.3,1.6,0.8
		c0.5,0.5,0.7,1.1,0.7,1.8c0,0.8-0.2,1.6-0.7,2.5c-0.4,0.9-0.9,1.8-1.5,2.6c-0.5,0.9-1,1.7-1.5,2.4c-0.4,0.8-0.7,1.4-0.7,1.8
		c0,0.2,0.1,0.3,0.4,0.3c0.2,0,0.6-0.2,1-0.5c0.5-0.3,1-0.8,1.6-1.4c0.6-0.6,1.2-1.3,1.9-2.1c0.7-0.8,1.3-1.6,1.8-2.6
		c-0.1-0.3-0.2-0.7-0.2-1.1c0-0.4-0.1-0.8-0.1-1.2c0-1,0.2-1.9,0.6-2.5c0.4-0.6,0.9-0.9,1.6-0.9c0.4,0,0.8,0.1,1.1,0.3
		c0.3,0.2,0.5,0.4,0.6,0.7s0.2,0.5,0.3,0.8c0,0.3,0.1,0.4,0.1,0.6c0,0.6-0.2,1.3-0.6,2.1c-0.4,0.8-1,1.6-1.8,2.5
		c0.2,0.4,0.5,0.6,0.8,0.6c0.2,0,0.4-0.1,0.6-0.3c0.2-0.2,0.3-0.4,0.5-0.6c0.2-0.2,0.3-0.4,0.4-0.6c0.1-0.2,0.3-0.3,0.4-0.3
		C177.4,57.2,177.5,57.2,177.5,57.3z M173.7,53.7c0,0.2-0.1,0.3-0.1,0.5c0,0.2,0,0.3,0,0.5c0,0.5,0,0.9,0.1,1.4
		c0.6-0.9,1.1-1.7,1.3-2.3c0.3-0.6,0.4-1,0.4-1.3c0-0.3-0.1-0.4-0.4-0.4c-0.4,0-0.7,0.2-0.9,0.5C173.9,53,173.7,53.4,173.7,53.7z"/>
	<path class="st39" d="M192,57.3c0.1,0.1,0.2,0.2,0.2,0.3c0,0.1,0,0.2-0.1,0.2c-0.4,0.7-0.9,1.5-1.5,2.2c-0.6,0.8-1.2,1.5-1.8,2.1
		c-0.6,0.6-1.2,1.2-1.9,1.6s-1.2,0.7-1.7,0.7c-0.7,0-1.2-0.1-1.6-0.3c-0.4-0.2-0.7-0.5-0.8-0.8c-0.2-0.3-0.3-0.6-0.4-1
		c0-0.3-0.1-0.6-0.1-0.9c-0.5,0.8-1.1,1.5-1.7,2.1c-0.6,0.6-1.3,0.9-2.1,0.9c-1.9,0-2.9-0.9-2.9-2.8c0-1,0.3-2.2,0.9-3.4
		c0.6-1.2,1.4-2.3,2.3-3.3c0.9-1,1.9-1.9,3-2.6c1.1-0.7,2.1-1,3.1-1c0.4,0,0.8,0.1,1.2,0.3c0.4,0.2,0.6,0.5,0.6,1
		c0.4-0.4,0.8-0.7,1.2-0.9c0.3-0.2,0.6-0.2,0.9-0.2c0.3,0,0.5,0.1,0.7,0.2c0.2,0.2,0.2,0.3,0.2,0.5c0,0.1,0,0.2-0.1,0.2
		c-0.4,0.4-0.9,1.1-1.5,1.9S187,56,186.5,57c-0.5,0.9-1,1.9-1.4,2.8c-0.4,0.9-0.6,1.7-0.6,2.4c0,0.3,0.1,0.6,0.2,0.9
		c0.1,0.3,0.3,0.5,0.6,0.5c0.3,0,0.7-0.2,1.3-0.5c0.5-0.4,1.1-0.8,1.6-1.4c0.6-0.6,1.1-1.2,1.7-2c0.6-0.7,1.1-1.5,1.5-2.3
		c0-0.1,0.1-0.2,0.3-0.2C191.8,57.2,191.9,57.2,192,57.3z M178.6,63.6c0.8,0,1.5-0.4,2.1-1.1s1.1-1.6,1.7-2.6c0.5-1,1.1-2.1,1.6-3.3
		s1.2-2.2,1.9-3.1c0.1-0.4,0.2-0.7,0-1c-0.1-0.3-0.4-0.4-0.9-0.4c-0.9,0-1.7,0.4-2.6,1.1c-0.9,0.8-1.6,1.7-2.4,2.7
		c-0.7,1.1-1.3,2.2-1.7,3.3c-0.4,1.2-0.7,2.2-0.7,3c0,0.3,0.1,0.6,0.2,0.9C177.9,63.5,178.2,63.6,178.6,63.6z"/>
</g>
<g>
	<path class="st37" d="M96.5,93h-2.2v-6.6h2.1V87h-1.5v2.5h1.4v0.5h-1.4v2.6h1.6V93z"/>
	<path class="st37" d="M98,93h-0.6v-6.6H98V93z"/>
	<path class="st37" d="M101.9,93h-0.4l-1.8-4.8V93h-0.6v-6.6h0.4l1.7,4.8v-4.8h0.6V93z"/>
	<path class="st37" d="M105.6,93H105l-1.5-3.2V93h-0.6v-6.6h0.6v3l1.4-3h0.6v0l-1.5,3.1L105.6,93z"/>
	<path class="st37" d="M108.9,93h-0.6l-0.2-1.5h-1.3l-0.2,1.5H106v0l1.2-6.6h0.6L108.9,93z M108,91l-0.6-3.6l-0.6,3.6H108z"/>
	<path class="st37" d="M112.3,91.2c0,0.1,0,0.2-0.1,0.3c-0.1,0.1-0.2,0.1-0.3,0.1h-1.5V93h-0.6v-6.6h0.6v1.3h1.5
		c0.1,0,0.2,0,0.3,0.1c0.1,0.1,0.1,0.2,0.1,0.3V91.2z M111.7,91.2v-2.9h-1.4v2.9H111.7z"/>
	<path class="st37" d="M115.5,92.6c0,0.1,0,0.2-0.1,0.3S115.2,93,115,93h-1.5c-0.1,0-0.2,0-0.3-0.1c-0.1-0.1-0.1-0.2-0.1-0.3v-1.7
		h0.6v1.6h1.3v-6.1h0.6V92.6z"/>
	<path class="st37" d="M119.2,93h-0.6l-0.2-1.5h-1.3l-0.2,1.5h-0.6v0l1.2-6.6h0.6L119.2,93z M118.3,91l-0.6-3.6l-0.6,3.6H118.3z
		 M118.7,85.1l-1,1h-0.4v0l0.6-1L118.7,85.1L118.7,85.1z"/>
	<path class="st37" d="M122.1,93H120v-6.6h0.6v6.1h1.5V93z"/>
	<path class="st37" d="M125,87h-1.5v2.5h1.4V90h-1.4v3h-0.6v-6.6h2.1V87z"/>
	<path class="st37" d="M128.5,93h-0.6l-0.2-1.5h-1.3l-0.2,1.5h-0.6v0l1.2-6.6h0.6L128.5,93z M127.6,91l-0.6-3.6l-0.6,3.6H127.6z"/>
	<path class="st37" d="M132,93h-0.6l-1.2-3.5l0.1-0.1h1V87h-1.5V93h-0.6v-6.6h2.2c0.1,0,0.2,0,0.3,0.1c0.1,0.1,0.1,0.2,0.1,0.3v2.5
		c0,0.3-0.2,0.5-0.6,0.5c0,0-0.1,0-0.2,0c-0.1,0-0.1,0-0.2,0C131.3,90.9,131.7,92,132,93z"/>
	<path class="st37" d="M133.5,93H133v-6.6h0.6V93z"/>
	<path class="st37" d="M137.9,90.8h-1.7v-0.5h1.7V90.8z"/>
	<path class="st37" d="M143.1,89.9c0,0.1,0,0.2-0.1,0.3c-0.1,0.1-0.2,0.1-0.3,0.1h-1.5V93h-0.6v-6.6h2.1c0.1,0,0.2,0,0.3,0.1
		s0.1,0.2,0.1,0.3V89.9z M142.6,89.9V87h-1.4v2.9H142.6z"/>
	<path class="st37" d="M146.2,93h-2.2v-6.6h2.1V87h-1.5v2.5h1.4v0.5h-1.4v2.6h1.6V93z"/>
	<path class="st37" d="M149.9,93h-0.6l-1.2-3.5l0.1-0.1h1V87h-1.5V93h-0.6v-6.6h2.2c0.1,0,0.2,0,0.3,0.1c0.1,0.1,0.1,0.2,0.1,0.3
		v2.5c0,0.3-0.2,0.5-0.6,0.5c0,0-0.1,0-0.2,0c-0.1,0-0.1,0-0.2,0C149.2,90.9,149.6,92,149.9,93z"/>
	<path class="st37" d="M153.4,92.6c0,0.1,0,0.2-0.1,0.3c-0.1,0.1-0.2,0.1-0.3,0.1h-1.7c-0.1,0-0.2,0-0.3-0.1
		c-0.1-0.1-0.1-0.2-0.1-0.3v-1.7h0.6v1.6h1.4v-1.6l-1.8-2.2c-0.1-0.2-0.2-0.3-0.2-0.5v-1.3c0-0.1,0-0.2,0.1-0.3
		c0.1-0.1,0.2-0.1,0.3-0.1h1.7c0.1,0,0.2,0,0.3,0.1c0.1,0.1,0.1,0.2,0.1,0.3v1.5h-0.6V87h-1.4v1.4l1.8,2.2c0.1,0.1,0.2,0.3,0.2,0.5
		V92.6z"/>
	<path class="st37" d="M157.2,92.6c0,0.1,0,0.2-0.1,0.3c-0.1,0.1-0.2,0.1-0.3,0.1h-1.8c-0.1,0-0.2,0-0.3-0.1s-0.1-0.2-0.1-0.3v-5.6
		c0-0.1,0-0.2,0.1-0.3s0.2-0.1,0.3-0.1h1.8c0.1,0,0.2,0,0.3,0.1c0.1,0.1,0.1,0.2,0.1,0.3V92.6z M156.6,92.5V87H155v5.5H156.6z"/>
	<path class="st37" d="M160.9,93h-0.4l-1.8-4.8V93h-0.5v-6.6h0.4l1.7,4.8v-4.8h0.5V93z"/>
	<path class="st37" d="M164.6,93h-0.6l-0.2-1.5h-1.3l-0.2,1.5h-0.6v0l1.2-6.6h0.6L164.6,93z M163.8,91l-0.6-3.6l-0.6,3.6H163.8z"/>
	<path class="st37" d="M167.5,93h-2.1v-6.6h0.6v6.1h1.5V93z"/>
	<path class="st37" d="M172.3,87h-1V93h-0.6V87h-1v-0.5h2.6V87z"/>
	<path class="st37" d="M175.8,93h-0.6l-1.2-3.5l0.1-0.1h1V87h-1.5V93H173v-6.6h2.2c0.1,0,0.2,0,0.3,0.1c0.1,0.1,0.1,0.2,0.1,0.3v2.5
		c0,0.3-0.2,0.5-0.6,0.5c0,0-0.1,0-0.2,0c-0.1,0-0.1,0-0.2,0C175,90.9,175.4,92,175.8,93z"/>
	<path class="st37" d="M179.3,93h-0.6l-0.2-1.5h-1.3l-0.2,1.5h-0.6v0l1.2-6.6h0.6L179.3,93z M178.4,91l-0.6-3.6l-0.6,3.6H178.4z"/>
	<path class="st37" d="M180.7,93h-0.6v-6.6h0.6V93z"/>
	<path class="st37" d="M184.5,93h-0.4l-1.8-4.8V93h-0.5v-6.6h0.4l1.7,4.8v-4.8h0.5V93z"/>
	<path class="st37" d="M187.7,93h-2.2v-6.6h2.1V87h-1.5v2.5h1.4v0.5h-1.4v2.6h1.6V93z"/>
	<path class="st37" d="M191.4,93h-0.6l-1.2-3.5l0.1-0.1h1V87h-1.5V93h-0.6v-6.6h2.2c0.1,0,0.2,0,0.3,0.1c0.1,0.1,0.1,0.2,0.1,0.3
		v2.5c0,0.3-0.2,0.5-0.6,0.5c0,0-0.1,0-0.2,0c-0.1,0-0.1,0-0.2,0C190.7,90.9,191,92,191.4,93z"/>
</g>
</svg>
